<?xml version="1.0" encoding="UTF-8" standalone="no"?>
<svg width="55px" height="55px" viewBox="0 0 55 55" version="1.1" xmlns="http://www.w3.org/2000/svg" xmlns:xlink="http://www.w3.org/1999/xlink" xmlns:sketch="http://www.bohemiancoding.com/sketch/ns">
    <title>Linked in</title>
    <desc>Created with Sketch.</desc>
    <defs></defs>
    <g id="Page-1" stroke="none" stroke-width="1" fill="none" fill-rule="evenodd" sketch:type="MSPage">
        <g id="-nenito's-website" sketch:type="MSArtboardGroup" transform="translate(-200.000000, -457.000000)">
            <g id="Jesse-Miller-+-Hashtag-normcore-dee-+-social-media-icons" sketch:type="MSLayerGroup" transform="translate(47.000000, 174.000000)">
                <g id="social-media-icons" transform="translate(70.000000, 284.000000)" sketch:type="MSShapeGroup">
                    <g id="Linked-in" transform="translate(84.000000, 0.000000)">
                        <path d="M26.46,52.9187143 C36.0012857,43.7335714 43.7348571,35.9987143 52.9187143,26.4587143 C43.7348571,16.9187143 36.0012857,9.18385714 26.46,0 C16.9174286,9.18385714 9.18514286,16.9187143 0,26.4587143 C9.18514286,35.9987143 16.9174286,43.7335714 26.46,52.9187143" id="Imported-Layers" stroke="#323139"></path>
                        <path d="M15.9788571,23.1531429 L20.2422857,23.1531429 L20.2422857,36.7932857 L15.9788571,36.7932857 L15.9788571,23.1531429 Z M18.0012857,21.447 L17.9691429,21.447 C16.4275714,21.447 15.4285714,20.4042857 15.4285714,19.0838571 C15.4285714,17.7364286 16.4584286,16.7142857 18.0308571,16.7142857 C19.6032857,16.7142857 20.5714286,17.7338571 20.601,19.08 C20.601,20.4017143 19.6032857,21.447 18.0012857,21.447 L18.0012857,21.447 Z M37.296,36.7945714 L32.4617143,36.7945714 L32.4617143,29.7347143 C32.4617143,27.8871429 31.7057143,26.6271429 30.0432857,26.6271429 C28.7717143,26.6271429 28.0645714,27.477 27.7354286,28.2985714 C27.612,28.5917143 27.6312857,29.0018571 27.6312857,29.4132857 L27.6312857,36.7945714 L22.8432857,36.7945714 C22.8432857,36.7945714 22.905,24.2897143 22.8432857,23.1531429 L27.6312857,23.1531429 L27.6312857,25.2938571 C27.9141429,24.3578571 29.4428571,23.022 31.887,23.022 C34.9148571,23.022 37.296,24.9852857 37.296,29.2088571 L37.296,36.7945714 L37.296,36.7945714 Z" id="Imported-Layers" fill="#323139"></path>
                    </g>
                </g>
            </g>
        </g>
    </g>
</svg>