<?xml version="1.0" encoding="UTF-8" standalone="no"?>
<svg width="54px" height="55px" viewBox="0 0 54 55" version="1.1" xmlns="http://www.w3.org/2000/svg" xmlns:xlink="http://www.w3.org/1999/xlink" xmlns:sketch="http://www.bohemiancoding.com/sketch/ns">
    <title>octocat</title>
    <desc>Created with Sketch.</desc>
    <defs></defs>
    <g id="Page-1" stroke="none" stroke-width="1" fill="none" fill-rule="evenodd" sketch:type="MSPage">
        <g id="-nenito's-website" sketch:type="MSArtboardGroup" transform="translate(-286.000000, -457.000000)">
            <g id="Jesse-Miller-+-Hashtag-normcore-dee-+-social-media-icons" sketch:type="MSLayerGroup" transform="translate(47.000000, 174.000000)">
                <g id="social-media-icons" transform="translate(70.000000, 284.000000)" sketch:type="MSShapeGroup">
                    <g id="octocat" transform="translate(169.500000, 0.255814)">
                        <path d="M26.46,52.9187143 C36.0012857,43.7335714 43.7348571,35.9987143 52.9187143,26.4587143 C43.7348571,16.9187143 36.0012857,9.18385714 26.46,0 C16.9174286,9.18385714 9.18514286,16.9187143 0,26.4587143 C9.18514286,35.9987143 16.9174286,43.7335714 26.46,52.9187143" id="Imported-Layers" stroke="#323139"></path>
                        <path d="M26.5699997,16 C20.1800653,16 15,21.1800653 15,27.5699997 C15,32.6839396 18.3205899,37.0226894 22.9138798,38.5614994 C23.4923798,38.6540594 23.6774998,38.2953894 23.6774998,37.9829994 L23.6774998,36.0276695 C20.4726099,36.7218695 19.7899799,34.4772895 19.7899799,34.4772895 C19.2577599,33.1351695 18.5057099,32.7764996 18.5057099,32.7764996 C17.4528399,32.0591596 18.5866999,32.0822996 18.5866999,32.0822996 C19.7436999,32.1632896 20.3569099,33.2740095 20.3569099,33.2740095 C21.3634998,35.0326495 23.0642898,34.5119995 23.7237798,34.2343195 C23.8279098,33.4822695 24.1287298,32.9731896 24.4526898,32.6839396 C21.8841498,32.3946896 19.1883399,31.3996696 19.1883399,26.9914997 C19.1883399,25.7072297 19.6279999,24.6774998 20.3800499,23.8560298 C20.2643499,23.5667798 19.8593999,22.3634998 20.4957499,20.8015499 C20.4957499,20.8015499 21.4676298,20.4891599 23.6774998,21.9816898 C24.5915297,21.7271498 25.5865497,21.5998799 26.5699997,21.5998799 C27.5534497,21.5998799 28.5484696,21.7271498 29.4624996,21.9816898 C31.6723696,20.4891599 32.6442495,20.8015499 32.6442495,20.8015499 C33.2805995,22.3634998 32.8756495,23.5667798 32.7599495,23.8560298 C33.5119995,24.6774998 33.9516595,25.7072297 33.9516595,26.9914997 C33.9516595,31.4112396 31.2442796,32.3831196 28.6641696,32.6723696 C29.0806896,33.0310396 29.4624996,33.7368095 29.4624996,34.8128195 L29.4624996,37.9829994 C29.4624996,38.2953894 29.6476196,38.6656294 30.2376896,38.5614994 C34.8309795,37.0111194 38.1399994,32.6839396 38.1399994,27.5699997 C38.1399994,24.501445 36.9210208,21.5585703 34.7512249,19.3887745 C32.5814291,17.2189786 29.6385544,16 26.5699997,16 L26.5699997,16 Z" id="Shape" fill="#323139"></path>
                    </g>
                </g>
            </g>
        </g>
    </g>
</svg>