<?xml version="1.0" encoding="UTF-8" standalone="no"?>
<svg width="53px" height="54px" viewBox="0 0 53 54" version="1.1" xmlns="http://www.w3.org/2000/svg" xmlns:xlink="http://www.w3.org/1999/xlink" xmlns:sketch="http://www.bohemiancoding.com/sketch/ns">
    <!-- Generator: Sketch 3.3.2 (12043) - http://www.bohemiancoding.com/sketch -->
    <title>twitter</title>
    <desc>Created with Sketch.</desc>
    <defs></defs>
    <g id="Page-1" stroke="none" stroke-width="1" fill="none" fill-rule="evenodd" sketch:type="MSPage">
        <g id="-nenito's-website" sketch:type="MSArtboardGroup" transform="translate(-117.000000, -457.000000)">
            <g id="Jesse-Miller-+-Hashtag-normcore-dee-+-social-media-icons" sketch:type="MSLayerGroup" transform="translate(47.000000, 174.000000)">
                <g id="social-media-icons" transform="translate(70.000000, 284.000000)" sketch:type="MSShapeGroup">
                    <g id="twitter" transform="translate(0.500000, 0.255814)">
                        <path d="M25.8446512,51.6880465 C35.1627907,42.7165116 42.7177674,35.1627907 51.6880465,25.8433953 C42.7177674,16.5252558 35.1627907,8.97027907 25.8446512,0 C16.5252558,8.97027907 8.97153488,16.5252558 0,25.8433953 C8.97153488,35.1627907 16.5252558,42.7165116 25.8446512,51.6880465" id="Imported-Layers" stroke="#323139"></path>
                        <path d="M37.7208837,19.6396744 C36.9334884,19.9875349 36.0870698,20.2236279 35.1992093,20.3303721 C36.1071628,19.7866047 36.8028837,18.9276279 37.1293953,17.9028837 C36.2817209,18.4052093 35.3411163,18.7706512 34.3414884,18.9665581 C33.5415349,18.1138605 32.4012558,17.5813953 31.137907,17.5813953 C28.714186,17.5813953 26.750093,19.5467442 26.750093,21.9704651 C26.750093,22.3145581 26.7865116,22.6486047 26.8631163,22.970093 C23.2137209,22.7867442 19.98,21.039907 17.8137209,18.3826047 C17.4369767,19.0331163 17.2209767,19.7866047 17.2209767,20.5915814 C17.2209767,22.1123721 17.995814,23.4573488 19.1725116,24.2447442 C18.454186,24.2233953 17.7760465,24.0237209 17.1845581,23.6972093 L17.1845581,23.7512093 C17.1845581,25.8785581 18.697814,27.6530233 20.7058605,28.0548837 C20.337907,28.1578605 19.9511163,28.2093488 19.548,28.2093488 C19.2666977,28.2093488 18.9904186,28.1829767 18.724186,28.1314884 C19.2805116,29.8745581 20.9017674,31.144186 22.8231628,31.178093 C21.3212093,32.3560465 19.4286977,33.0580465 17.3729302,33.0580465 C17.0175349,33.0580465 16.6671628,33.0379535 16.3255814,32.9965116 C18.2683256,34.2410233 20.5752558,34.9681395 23.0529767,34.9681395 C31.1278605,34.9681395 35.5433023,28.2809302 35.5433023,22.4790698 C35.5433023,22.2894419 35.5382791,22.0985581 35.5307442,21.9114419 C36.3884651,21.2923256 37.1331628,20.5187442 37.7208837,19.6396744" id="Imported-Layers" fill="#323139"></path>
                    </g>
                </g>
            </g>
        </g>
    </g>
</svg>